<svg xmlns="http://www.w3.org/2000/svg" version="1.1" xmlns:xlink="http://www.w3.org/1999/xlink" width="1500" height="1500" viewBox="0 0 1500 1500"><rect width="1500" height="1500" x="0" y="0" id="background" stroke="transparent" fill="#000000"></rect><svg xml:space="preserve" width="1000" height="1000" data-version="2" data-id="lg_wenCf0xO4T9KepQFyc" viewBox="0 0 695 218" x="250" y="250"><rect width="100%" height="100%" fill="transparent"></rect><path fill="#5b5b5b" d="M99.26 1.876C49.893 5.367 10.453 44.806 6.962 94.174c-.272 3.853 2.769 7.133 6.63 7.133h86.156a6.647 6.647 0 0 0 6.646-6.647V8.507c0-3.862-3.28-6.902-7.132-6.63Zm122.214 92.881C217.983 45.39 178.544 5.95 129.176 2.46c-3.853-.272-7.133 2.769-7.133 6.63v86.156a6.647 6.647 0 0 0 6.647 6.646h86.153c3.862 0 6.902-3.28 6.63-7.132Zm-9.408 20.253c-49.367 3.49-88.807 42.93-92.298 92.297-.272 3.853 2.769 7.133 6.63 7.133h86.156a6.647 6.647 0 0 0 6.646-6.647V121.64c0-3.862-3.28-6.902-7.132-6.63ZM6.962 123.826c3.491 49.367 42.93 88.807 92.298 92.298 3.853.272 7.133-2.769 7.133-6.63v-86.156a6.647 6.647 0 0 0-6.647-6.646H13.593c-3.862 0-6.902 3.28-6.63 7.132Zm236.963 26.164h7.24l6.36 36.64 8.75-15.93h6.8l8.75 15.93 6.36-36.64h7.21l-8.44 48.6h-6.5l-10.8-19.55-10.76 19.55h-6.53z"></path><rect width="51.47" height="48.6" x="-25.73" y="-24.3" fill="none" rx="0" ry="0" transform="translate(270.16 174.79)"></rect><path fill="#5b5b5b" d="M301.895 188.61V170.5q0-3.05 2.22-5.18 2.22-2.14 5.33-2.14h14.76q2.84 0 5.15 1.39 2.31 1.38 3.69 3.72 1.38 2.34 1.38 5.18v.99q0 2.8-1.38 5.11-1.38 2.31-3.69 3.69-2.31 1.39-5.15 1.39h-11v-7.18h11.07q1.23 0 2.11-.89.87-.89.87-2.15v-.96q0-1.3-.87-2.19-.88-.89-2.11-.89h-15.17v18.19q0 1.16.78 1.98.79.82 1.92.82h20.13v7.21h-20.13q-2.74 0-4.99-1.35-2.26-1.35-3.59-3.62t-1.33-5.01"></path><rect width="32.53" height="35.41" x="-16.27" y="-17.7" fill="none" rx="0" ry="0" transform="translate(318.66 181.38)"></rect><path fill="#5b5b5b" d="M341.945 191.38v-41.39h7.22v41.39h12.54q2.32 0 3.95-1.64 1.62-1.64 1.62-3.93v-9.78q0-2.32-1.62-3.98-1.63-1.66-3.95-1.66h-8.44v-7.21h8.44q3.52 0 6.43 1.73 2.9 1.72 4.63 4.63 1.72 2.9 1.72 6.42v9.92q0 3.48-1.72 6.37-1.73 2.89-4.63 4.62-2.91 1.72-6.43 1.72h-12.54q-2.98 0-5.1-2.12-2.12-2.12-2.12-5.09"></path><rect width="32.54" height="48.6" x="-16.27" y="-24.3" fill="none" rx="0" ry="0" transform="translate(358.71 174.79)"></rect><path fill="#5b5b5b" d="M382.345 173.98v-.85q0-2.77 1.39-5.03 1.38-2.25 3.69-3.59 2.31-1.33 5.11-1.33h20.78v7.21h-20.78q-1.23 0-2.1.81-.87.8-.87 1.93v.85q0 1.16.87 1.98.87.82 2.1.82h12.92q2.8 0 5.11 1.35 2.31 1.35 3.67 3.61 1.37 2.26 1.37 5.02v1.85q0 2.74-1.37 5.01-1.36 2.27-3.67 3.62-2.31 1.35-5.11 1.35h-21.5v-7.21h21.5q1.23 0 2.1-.82.87-.82.87-1.98v-1.78q0-1.2-.87-2.02-.87-.82-2.1-.82h-12.92q-2.8 0-5.11-1.35-2.31-1.35-3.69-3.62-1.39-2.27-1.39-5.01"></path><rect width="33.26" height="35.41" x="-16.63" y="-17.7" fill="none" rx="0" ry="0" transform="translate(399.48 181.38)"></rect><path fill="#5b5b5b" d="M422.645 153.54q0-1.84 1.3-3.14t3.15-1.3q1.84 0 3.14 1.3t1.3 3.14q0 1.85-1.3 3.15-1.3 1.3-3.14 1.3-1.85 0-3.15-1.3-1.3-1.3-1.3-3.15m.82 45.05v-35.41h7.25v35.41z"></path><rect width="8.89" height="49.49" x="-4.45" y="-24.75" fill="none" rx="0" ry="0" transform="translate(427.59 174.34)"></rect><path fill="#5b5b5b" d="M437.205 170.39v-7.21h4.62v-13.19h7.21v13.19h10.9v7.21h-10.9v18.15q0 1.16.9 2 .91.84 2.18.84h7.82v7.21h-7.93q-2.8 0-5.11-1.35-2.3-1.35-3.69-3.62-1.38-2.27-1.38-5.04v-18.19z"></path><rect width="22.73" height="48.6" x="-11.37" y="-24.3" fill="none" rx="0" ry="0" transform="translate(449.07 174.79)"></rect><path fill="#5b5b5b" d="M466.435 188.61V170.5q0-3.05 2.22-5.18 2.22-2.14 5.33-2.14h14.77q2.83 0 5.14 1.39 2.31 1.38 3.69 3.72 1.39 2.34 1.39 5.18v.99q0 2.8-1.39 5.11-1.38 2.31-3.69 3.69-2.31 1.39-5.14 1.39h-11.01v-7.18h11.07q1.23 0 2.11-.89.87-.89.87-2.15v-.96q0-1.3-.87-2.19-.88-.89-2.11-.89h-15.17v18.19q0 1.16.78 1.98.79.82 1.92.82h20.13v7.21h-20.13q-2.74 0-4.99-1.35-2.26-1.35-3.59-3.62t-1.33-5.01"></path><rect width="32.54" height="35.41" x="-16.27" y="-17.7" fill="none" rx="0" ry="0" transform="translate(483.2 181.38)"></rect><path fill="#5b5b5b" d="M504.095 198.59v-7.18h8.68q2.7 0 4.62-1.88 1.91-1.88 1.91-4.54v-35h7.18v35.1q0 3.73-1.85 6.78-1.84 3.06-4.95 4.89-3.11 1.83-6.91 1.83z"></path><rect width="22.39" height="48.6" x="-11.2" y="-24.3" fill="none" rx="0" ry="0" transform="translate(515.79 174.79)"></rect><path fill="#5b5b5b" d="M535.035 185.81v-9.85q0-3.52 1.72-6.42 1.73-2.91 4.63-4.63 2.91-1.73 6.43-1.73h7.72q3.52 0 6.43 1.73 2.9 1.72 4.63 4.63 1.73 2.9 1.73 6.42v9.85q0 3.52-1.73 6.42-1.73 2.91-4.63 4.64-2.91 1.72-6.43 1.72h-7.72q-3.52 0-6.43-1.72-2.9-1.73-4.63-4.64-1.72-2.9-1.72-6.42m7.21-9.78v9.71q0 2.32 1.64 3.98 1.64 1.66 3.93 1.66h7.72q2.33 0 3.95-1.66t1.62-3.98v-9.71q0-2.32-1.62-3.98-1.62-1.66-3.95-1.66h-7.72q-2.29 0-3.93 1.66-1.64 1.66-1.64 3.98"></path><rect width="33.29" height="35.41" x="-16.64" y="-17.7" fill="none" rx="0" ry="0" transform="translate(552.18 181.38)"></rect><path fill="#5b5b5b" d="M576.185 198.59v-48.6h7.21v26.76h2.43l12.81-13.57h9.37l-16.17 17.16 17.6 18.25h-10.08l-14.18-14.63h-1.78v14.63z"></path><rect width="33.25" height="48.6" x="-16.63" y="-24.3" fill="none" rx="0" ry="0" transform="translate(593.31 174.79)"></rect><path fill="#5b5b5b" d="M613.745 153.54q0-1.84 1.3-3.14t3.14-1.3q1.85 0 3.15 1.3 1.3 1.3 1.3 3.14 0 1.85-1.3 3.15-1.3 1.3-3.15 1.3-1.84 0-3.14-1.3t-1.3-3.15m.82 45.05v-35.41h7.25v35.41z"></path><rect width="8.89" height="49.49" x="-4.45" y="-24.75" fill="none" rx="0" ry="0" transform="translate(618.69 174.34)"></rect><path fill="#404040" d="M630.695 198.59v-48.6h7.22v48.6z"></path><rect width="7.22" height="48.6" x="-3.61" y="-24.3" fill="none" rx="0" ry="0" transform="translate(634.8 174.79)"></rect><path fill="#404040" d="M647.485 198.59v-48.6h25.84q3.79 0 6.92 1.84 3.12 1.85 4.97 4.94 1.85 3.1 1.85 6.89v21.4q0 3.72-1.85 6.8-1.85 3.07-4.97 4.9-3.13 1.83-6.92 1.83zm7.21-7.21h18.63q2.73 0 4.64-1.88 1.92-1.88 1.92-4.55v-21.29q0-2.7-1.92-4.6-1.91-1.89-4.64-1.89h-18.63z"></path><rect width="39.58" height="48.6" x="-19.79" y="-24.3" fill="none" rx="0" ry="0" transform="translate(667.77 174.79)"></rect></svg></svg>